<svg width="18" height="18" viewBox="0 0 18 18" fill="none" xmlns="http://www.w3.org/2000/svg">
<path fill-rule="evenodd" clip-rule="evenodd" d="M9 18C13.9706 18 18 13.9706 18 9C18 4.02944 13.9706 0 9 0C4.02944 0 0 4.02944 0 9C0 13.9706 4.02944 18 9 18Z" fill="#09ACFE"/>
<path d="M9 5.3335C7.525 5.3335 6 6.49479 6 8.43027C6 10.2625 8.7 13.127 8.825 13.2561C8.875 13.3077 8.925 13.3335 9 13.3335C9.075 13.3335 9.125 13.3077 9.175 13.2561C9.3 13.127 12 10.2883 12 8.43027C12 6.49479 10.475 5.3335 9 5.3335Z" fill="white"/>
</svg>
