<svg width="24" height="25" viewBox="0 0 24 25" fill="none" xmlns="http://www.w3.org/2000/svg">
<path fill-rule="evenodd" clip-rule="evenodd" d="M-5.24537e-07 12.9707C-8.1423e-07 19.5981 5.37258 24.9707 12 24.9707C18.6274 24.9707 24 19.5981 24 12.9707C24 6.34329 18.6274 0.970703 12 0.970703C5.37258 0.970702 -2.34843e-07 6.34328 -5.24537e-07 12.9707Z" fill="#3BB96C"/>
<path d="M7.22435 10.5624L11.1866 17.6944C11.4243 18.0906 11.979 18.0906 12.2167 17.6944L16.179 10.5624C16.4167 10.0869 15.9809 9.57182 15.4658 9.76993L11.7413 11.2756L8.01679 9.76993C7.42246 9.57182 6.98662 10.0869 7.22435 10.5624Z" fill="white"/>
</svg>
