<svg width="16" height="16" viewBox="0 0 16 16" fill="none" xmlns="http://www.w3.org/2000/svg">
<rect width="16" height="16" rx="8" fill="#FBAB75"/>
<g clip-path="url(#clip0_1_224)">
<path d="M7.99993 4.2666C5.94129 4.2666 4.2666 5.94129 4.2666 7.99993C4.2666 10.0586 5.94129 11.7333 7.99993 11.7333C10.0586 11.7333 11.7333 10.0586 11.7333 7.99993C11.7333 5.94129 10.0586 4.2666 7.99993 4.2666ZM9.77546 9.93097C9.71479 9.99164 9.63515 10.0222 9.55551 10.0222C9.47587 10.0222 9.39618 9.99164 9.33556 9.93097L7.77999 8.37546C7.72148 8.31729 7.68884 8.23822 7.68884 8.15551V6.13327C7.68884 5.96123 7.82818 5.82218 7.99993 5.82218C8.17169 5.82218 8.31103 5.96123 8.31103 6.13327V8.02671L9.77546 9.49108C9.89708 9.61276 9.89708 9.80935 9.77546 9.93097Z" fill="white"/>
</g>
<defs>
<clipPath id="clip0_1_224">
<rect width="7.46667" height="7.46667" fill="white" transform="translate(4.2666 4.2666)"/>
</clipPath>
</defs>
</svg>
