<svg width="16" height="16" viewBox="0 0 16 16" fill="none" xmlns="http://www.w3.org/2000/svg">
<rect width="16" height="16" rx="8" fill="#F98A8A"/>
<g clip-path="url(#clip0_1_239)">
<path d="M11.4468 7.48947H11.4043V7.06394C11.4043 6.57032 11.0383 6.16181 10.5532 6.09373V5.57458C10.5532 5.03841 10.1106 4.59586 9.57447 4.59586H5.0383C4.4766 4.59586 4.00851 5.04692 4 5.61713V10.4256C4 10.9618 4.44255 11.4044 4.97872 11.4044H10.4255C10.9617 11.4044 11.4043 10.9618 11.4043 10.4256V9.95755H11.4468C11.7532 9.95755 12 9.71075 12 9.40436V8.04266C12 7.73628 11.7532 7.48947 11.4468 7.48947ZM4.59574 5.63415C4.59574 5.38734 4.8 5.1916 5.0383 5.1916H9.56596C9.77872 5.1916 9.94894 5.36181 9.94894 5.57458V6.08522H5.0383C4.8 6.08522 4.59574 5.88096 4.59574 5.63415ZM11.4043 9.36181H10C9.65106 9.36181 9.3617 9.07245 9.3617 8.72351C9.3617 8.37458 9.65106 8.08521 10 8.08521H11.4043V9.36181Z" fill="white"/>
<path d="M10.1703 9.14886C10.4053 9.14886 10.5958 8.95834 10.5958 8.72333C10.5958 8.48831 10.4053 8.29779 10.1703 8.29779C9.93527 8.29779 9.74475 8.48831 9.74475 8.72333C9.74475 8.95834 9.93527 9.14886 10.1703 9.14886Z" fill="white"/>
</g>
<defs>
<clipPath id="clip0_1_239">
<rect width="8" height="8" fill="white" transform="translate(4 4)"/>
</clipPath>
</defs>
</svg>
